<svg xmlns="http://www.w3.org/2000/svg" width="58" height="52" viewBox="0 0 58 52">
  <path d="M3 30C5 12 17 3 31 4c14 1 23 12 24 28H3Z" fill="#B9A9A9" stroke="#000" stroke-width=".7"/>
  <path d="M17 15c8-5 17-5 25 1-2 4-5 6-10 6h-8c-4 0-6-3-7-7Z" fill="#9EB8A9" stroke="#000" stroke-width=".7"/>
  <path d="M10 24h38M17 30l-5 14M45 30l-6 15" fill="none" stroke="#000" stroke-width=".7"/>
  <path d="M21 36c4 6 12 8 21 3" fill="none" stroke="#000" stroke-width=".7"/>
  <path d="M20 28h18c1 8-4 15-11 15-5 0-8-5-7-15Z" fill="#99CBC7" stroke="#000" stroke-width=".7"/>
</svg>
