<svg preserveAspectRatio="none" width="100%" height="100%" overflow="visible" style="display: block;" viewBox="0 0 59.5145 39.5" fill="none" xmlns="http://www.w3.org/2000/svg">
<g id="Kasket">
<path id="Vector 93" d="M32.3912 1.69396C27.9806 3.58123 20.3082 9.94459 20.6195 21.5199" stroke="var(--stroke-0, black)" stroke-width="0.5"/>
<g id="Vector 92">
<path d="M8.8316 30.2633C6.57082 33.2118 1.40675 38.2346 0.264461 33.1104C1.50913 30.8314 5.07877 26.5771 10.9734 23.7574C11.3115 12.588 18.3738 0.595673 34.89 1.69065C36.0798 0.370014 38.9114 -1.1017 40.9104 2.55847C41.8055 2.74508 42.6535 2.94825 43.4571 3.16693C56.6291 6.7514 57.8579 14.4946 58.8065 21.5198C59.8774 29.4502 59.5205 28.8402 52.7382 28.2301C51.884 28.1533 51.0481 28.0553 50.2394 27.9423C47.8597 30.8908 42.3148 37.2586 40.6014 37.9906C38.4596 38.9056 34.533 41.3458 23.8241 35.2455C18.2956 32.0962 13.0525 30.4914 8.8316 30.2633Z" fill="var(--fill-0, #9EB8A9)"/>
<path d="M48.2108 27.6201C44.8216 27.0177 42.1355 26.2211 40.9583 25.79C34.2105 22.9071 22.9873 21.7588 17.9864 21.5299C17.83 21.5228 17.678 21.5347 17.5246 21.5659C15.0907 22.0618 12.907 22.8324 10.9734 23.7574C5.07877 26.5771 1.50913 30.8314 0.264461 33.1104C1.40675 38.2346 6.57082 33.2118 8.83159 30.2633M0.264461 33.1104C3.47714 28.8402 13.1152 29.1452 23.8241 35.2455C34.533 41.3457 38.4596 38.9056 40.6014 37.9906C42.3148 37.2586 47.8597 30.8908 50.2394 27.9423M48.2108 27.6201C49.618 27.8703 51.1463 28.087 52.7382 28.2301C59.5205 28.8402 59.8774 29.4502 58.8065 21.5198C57.8579 14.4946 56.6291 6.7514 43.4571 3.16693C41.7599 2.70507 39.8644 2.31226 37.7457 1.99892C36.764 1.85374 35.8122 1.75179 34.89 1.69065C18.3738 0.595673 11.3115 12.588 10.9734 23.7574M43.4571 3.16693C46.6262 4.50602 52.0138 11.2714 48.2108 27.6201M34.89 1.69065C36.0798 0.370014 38.9114 -1.1017 40.9104 2.55847" stroke="var(--stroke-0, black)" stroke-width="0.5"/>
</g>
</g>
</svg>
