<svg preserveAspectRatio="none" width="100%" height="100%" overflow="visible" style="display: block;" viewBox="0 0 60.5008 106.501" fill="none" xmlns="http://www.w3.org/2000/svg">
<path id="Vector 99" d="M6.73731 3.78333V0.25H53.7643V3.78333M30.5211 31.6574L21.3319 95.2574L20.7914 99.5759L19.7103 105.857H14.8454L10.5211 106.25L6.19677 105.857L1.87244 105.072L0.25082 22.2352L1.87244 17.5241L2.95352 12.0278L4.57514 6.92407L6.73731 3.78333M6.73731 3.78333H18.0887M10.5211 106.25L12.6833 77.5907L13.2238 63.4574L14.8454 41.8648L16.467 18.7019L18.0887 3.78333M53.7643 3.78333L55.9265 6.53148L58.6292 13.5981L60.2508 18.7019V23.413L59.7103 105.465L55.386 105.857L50.5211 106.25L41.3319 105.465L30.5211 31.6574M30.5211 31.6574V24.9833V3.78333M50.5211 106.25L49.44 86.2278L48.3589 72.8796L47.2778 55.9981L45.6562 34.4056L44.0346 15.1685L43.4941 4.17593M53.7643 3.78333H30.5211M30.5211 3.78333H18.0887M52.1427 1.42778H51.6022L51.0616 1.82037L50.5211 2.21296L51.0616 2.99815H52.6833L53.2238 2.21296V1.82037L52.1427 1.42778Z" fill="#8FCAC2" stroke="var(--stroke-0, black)" stroke-width="0.5"/>
</svg>
