<svg preserveAspectRatio="none" width="100%" height="100%" overflow="visible" style="display: block;" viewBox="0 0 37.5023 100.512" fill="none" xmlns="http://www.w3.org/2000/svg">
<g id="Bukser">
<g id="Vector 46">
<path d="M1.40625 3.1606L2.5625 0.25H33.7812L33.8396 0.473846L34.5943 3.36887L34.6484 3.5764L37.25 15.0109L36.6719 22.0795V30.6034L36.0938 40.1668L35.2266 48.067V55.9673V61.1648V68.0255V74.6783L35.5156 81.9548V88.6076V98.171L28.5781 100.25L20.1953 97.5473L21.6406 78.6284V71.9756V66.986V61.7885L21.9297 55.9673L21.6406 47.4433L21.3516 42.0379L20.4844 33.0982L19.9062 24.5743L19.3281 21.4558L18.1719 18.1294L17.0156 21.4558L16.7266 24.5743L16.4375 33.0982L15.5703 42.0379V47.2354L14.7031 55.5515V60.9569V65.3228L15.2812 71.5598V76.7573L15.8594 84.6575L16.4375 90.6866V97.5473L8.34375 100.25L1.40625 98.171V67.6097V61.7885V54.0962V49.3144V44.5327L0.828125 38.5036L0.25 32.4745V28.7323V22.4953V14.5951V8.98181L1.40625 3.1606Z" fill="var(--fill-0, #9EB8A9)"/>
<path d="M18.1719 18.1294L19.3281 21.4558L19.9062 24.5743L20.4844 33.0982L21.3516 42.0379L21.6406 47.4433L21.9297 55.9673L21.6406 61.7885V66.986V71.9756V78.6284L20.1953 97.5473L28.5781 100.25L35.5156 98.171V88.6076V81.9548L35.2266 74.6783V68.0255V61.1648V55.9673V48.067L36.0938 40.1668L36.6719 30.6034V22.0795L37.25 15.0109L34.6484 3.5764L34.5943 3.36887L33.8396 0.473846L33.7812 0.25H2.5625L1.40625 3.1606L0.25 8.98181V14.5951V22.4953V28.7323V32.4745L0.828125 38.5036L1.40625 44.5327V49.3144V54.0962V61.7885V67.6097V98.171L8.34375 100.25L16.4375 97.5473V90.6866L15.8594 84.6575L15.2812 76.7573V71.5598L14.7031 65.3228V60.9569V55.5515L15.5703 47.2354V42.0379L16.4375 33.0982L16.7266 24.5743L17.0156 21.4558L18.1719 18.1294ZM2.5625 0.25L9.21094 1.0816L18.4609 1.2895L28 1.0816L33.8396 0.473846M1.40625 3.1606L8.05469 4.2001M8.34375 100.25V57.4226V48.4828L7.76562 39.3352V32.0587L7.47656 17.2978L7.76562 10.2292L8.05469 4.2001M18.1719 18.1294V4.2001M28.5781 100.25V63.8675V52.6409L28.8672 44.7406V31.6429L29.1562 16.6741L28.8672 7.11071L28 4.2001M8.05469 4.2001H18.1719M18.1719 4.2001H28M28 4.2001L34.5943 3.36887M17.8828 13.9714L16.1484 12.5161L15.5703 10.8529V4.408" stroke="var(--stroke-0, black)" stroke-width="0.5"/>
</g>
</g>
</svg>
