<svg preserveAspectRatio="none" width="100%" height="100%" overflow="visible" style="display: block;" viewBox="0 0 54.5097 105.524" fill="none" xmlns="http://www.w3.org/2000/svg">
<g id="Nederdel">
<g id="Vector 69">
<path d="M10.607 0.784557L23.7573 0.250206H31.0319L43.9024 0.784557L46.1407 6.39524L48.6588 13.609L50.6174 20.5555L52.0164 27.7693L52.2962 30.9754L54.2547 98.0365L50.8972 99.3723L46.4205 100.441L34.2495 101.109L33.8298 105.25L25.9956 104.449L19.2806 103.647L12.8454 102.311L6.13035 100.441L0.254698 98.0365L1.37387 57.693L1.65366 47.5403L1.93345 40.3265V31.2426L2.21325 27.7693L3.61221 21.6243L5.01118 15.212L6.96972 10.4029L8.36869 5.86089L10.607 0.784557Z" fill="var(--fill-0, #B9A9A9)"/>
<path d="M34.2495 101.109L34.6692 96.9678L43.063 7.9983L37.7469 7.19677L31.3117 6.39524L23.7573 5.05937L17.3221 3.45631L10.607 0.784558L8.36869 5.86089L6.96972 10.4029L5.01118 15.212L3.61221 21.6243L2.21325 27.7693L1.93345 31.2426V40.3265L1.65366 47.5403L1.37387 57.693L0.254698 98.0365L6.13035 100.441L12.8454 102.311L19.2806 103.647L25.9956 104.449L33.8298 105.25L34.2495 101.109M10.607 0.784558L17.3221 1.85326H23.7573H31.3117H37.7469L43.9024 0.784557" stroke="var(--stroke-0, black)" stroke-width="0.5"/>
</g>
<path id="Vector 70" d="M36.3481 9.33419L38.3066 9.60137L39.4258 8.79984H40.2652L41.3843 9.33419L41.6641 9.86854L41.3843 10.9372L40.2652 11.7388H39.146L38.3066 10.9372V10.1357L36.3481 9.86854L36.0683 9.60137L36.3481 9.33419Z" fill="var(--fill-0, #B9A9A9)" stroke="var(--stroke-0, black)" stroke-width="0.5"/>
<g id="Vector 71">
<path d="M40.0475 10.1951L39.9853 10.1357L40.5449 9.60137L40.0475 10.1951Z" fill="var(--fill-0, #B9A9A9)"/>
<path d="M39.4257 9.60137L39.9853 10.1357M40.8247 10.9372L39.9853 10.1357M39.9853 10.1357L40.5449 9.60137L39.4257 10.9372" stroke="var(--stroke-0, black)" stroke-width="0.5"/>
</g>
</g>
</svg>
