<svg preserveAspectRatio="none" width="100%" height="100%" overflow="visible" style="display: block;" viewBox="0 0 65.5 49.4998" fill="none" xmlns="http://www.w3.org/2000/svg">
<g id="Vector 96">
<path d="M0.318481 47.1816C-0.0192364 46.6733 0.723742 44.765 6.3974 41.1986C12.0711 37.6323 15.6846 35.0201 16.7822 34.1598C20.1594 33.7297 28.5601 30.4058 35.1456 20.5515C41.7311 10.6972 53.3401 2.91542 58.3215 0.25632C58.685 0.224249 59.0954 0.305282 59.2854 0.61915C61.1193 3.2714 64.9593 9.15059 65.1602 12.2223C65.4135 16.0936 65.1602 17.1494 64.0204 18.6745C63.4369 19.4553 62.4881 20.3899 61.7181 22.0766C60.9842 23.6842 60.4126 25.9751 60.4744 29.4673C60.535 32.8887 60.5382 35.2514 60.522 36.7408C60.5111 37.7435 60.4914 38.3503 60.4744 38.6178C60.1895 38.7585 59.725 38.9151 59.208 38.9593C58.576 39.0133 57.8655 38.8993 57.3083 38.3831V36.7408V25.3614C55.282 26.6518 50.7481 30.1712 48.8232 33.9252C46.4169 38.6178 45.7837 40.1428 45.6571 40.964C45.6281 41.7417 45.3662 42.4456 44.9216 43.0816C44.1738 44.4855 42.6839 46.2711 39.7048 47.6509C35.6522 49.5279 11.7587 49.3715 0.318481 49.0586V48.4721V48.1201V47.1816Z" fill="var(--fill-0, #B6A6B9)"/>
<path d="M52.0734 14.8032C53.7673 10.9317 56.1413 5.99911 57.9415 3.77572C60.3731 0.772499 59.208 0.178112 58.3215 0.25632C53.3401 2.91542 41.7311 10.6972 35.1456 20.5515C28.5601 30.4058 20.1594 33.7297 16.7822 34.1598C15.6846 35.0201 12.0711 37.6323 6.3974 41.1986C0.723742 44.765 -0.0192364 46.6733 0.318481 47.1816V48.1201V48.4721M16.7822 34.1598C16.9511 34.4336 19.5684 35.4972 28.6867 37.5619C37.8051 39.6267 42.3643 35.6067 43.5041 33.3387C45.0238 32.2828 49.0764 23.0542 50.5962 18.3226C50.9689 17.3884 51.4793 16.1611 52.0734 14.8032M60.522 36.7408C60.5382 35.2514 60.535 32.8887 60.4744 29.4673C60.4126 25.9751 60.9842 23.6842 61.7181 22.0766C62.4881 20.3899 63.4369 19.4553 64.0204 18.6745C65.1602 17.1494 65.4135 16.0936 65.1602 12.2223C64.9576 9.12522 61.0556 3.17409 59.2404 0.554097M57.3083 25.3614C57.727 24.8283 58.9287 23.6366 60.7277 22.599M57.3083 25.3614V36.7408M57.3083 25.3614C55.282 26.6518 50.7481 30.1712 48.8232 33.9252C46.4169 38.6178 45.7837 40.1428 45.6571 40.964M61.7181 22.0766C61.3706 22.2432 61.0401 22.4188 60.7277 22.599M60.7277 22.599L59.208 25.596V38.9593M57.3083 36.7408V38.3831C57.8655 38.8993 58.576 39.0133 59.208 38.9593C59.725 38.9151 60.1895 38.7585 60.4744 38.6178C60.4914 38.3503 60.5111 37.7435 60.522 36.7408M57.3083 36.7408C58.0155 36.9363 59.6483 37.21 60.522 36.7408M45.6571 40.964C45.5304 41.7852 44.7705 45.3046 39.7048 47.6509C35.6522 49.5279 11.7587 49.3715 0.318481 49.0586V48.4721M45.6571 40.964C45.4544 46.4074 33.8369 48.2375 28.0535 48.4721H0.318481M27.0404 37.3273C29.9532 34.7464 35.9814 29.1623 36.792 27.473C37.6025 25.7837 47.3173 18.3226 52.0734 14.8032" stroke="var(--stroke-0, black)" stroke-width="0.5"/>
</g>
</svg>
