<svg preserveAspectRatio="none" width="100%" height="100%" overflow="visible" style="display: block;" viewBox="0 0 63.4923 44.4879" fill="none" xmlns="http://www.w3.org/2000/svg">
<g id="Sneaker">
<g id="Vector 87">
<path d="M5.5319 26.9569L7.61765 26.1394L14.5878 22.242C14.5699 21.9734 14.6163 21.648 14.7449 21.2575C14.7482 21.2473 14.7498 21.2365 14.7509 21.2258C14.7694 21.0486 15.0871 20.6297 16.25 20.242C16.25 19.9525 16.4764 19.4114 17.3224 19.2742C17.3862 19.1851 17.5216 19.1659 17.75 19.242L19.75 17.242C19.5833 16.742 19.65 15.642 21.25 15.242L22.8006 13.4674C22.9 12.7112 23.164 11.949 23.75 12.242L25.6946 9.81123C25.6394 8.93887 25.8941 7.74201 27.25 7.74201C29.9983 4.60106 31.6869 1.52435 32.2211 0.308597C32.2388 0.268261 32.2808 0.245342 32.3245 0.250775C36.771 0.803367 38.6559 6.3082 39.1052 9.31618C45.7852 10.6725 46.8186 8.65616 50.75 3.74197C53.95 -0.258031 54.9065 2.55364 54.9847 4.45947C55.6396 5.25547 56.3927 6.75064 57.25 9.24192L58.3515 15.8539C60.3606 18.2163 60.4936 20.4633 59.8632 22.2957L63.2253 27.3366C63.241 27.3602 63.2464 27.3882 63.239 27.4156C62.8676 28.7994 61.1951 31.7204 57.3499 32.7099C57.32 32.7176 57.2879 32.7108 57.2625 32.6932C56.8905 32.4364 56.0267 32.2779 55.2225 33.5141C55.2097 33.5337 55.1904 33.5489 55.1682 33.556L51.4173 34.7589C51.3788 34.7712 51.3372 34.7591 51.309 34.7302C50.922 34.3334 49.9079 33.9298 48.5725 35.174C48.561 35.1847 48.5475 35.1928 48.5324 35.1972C47.5868 35.471 45.3946 35.8438 44.0061 35.1907C42.2567 34.3679 39.8074 35.6021 36.3085 38.4821C33.6743 40.6503 32.2796 40.8023 31.8328 40.5841C31.7884 40.5624 31.7336 40.5641 31.6972 40.5975C31.0866 41.1585 29.787 42.173 28.975 42.1848C28.9655 42.1849 28.9567 42.1861 28.9475 42.1888C28.4761 42.3258 27.2936 42.5912 26.1934 42.5962C26.1728 42.5963 26.1533 42.6023 26.1363 42.6141C25.5356 43.0309 24.0425 43.8306 22.6629 43.8306C21.3647 43.8306 20.5682 43.5946 20.2735 43.4509C20.2365 43.4329 20.1924 43.4358 20.16 43.4612L19.1964 44.2166C19.1756 44.2329 19.1493 44.2403 19.123 44.2372L15.686 43.833C15.6722 43.8314 15.6592 43.8271 15.6472 43.8201L14.3638 43.0655C14.3118 43.0349 14.243 43.0572 14.2 43.0995C13.9424 43.3526 13.0158 43.5936 10.7794 43.011C10.7711 43.0089 10.7627 43.0078 10.7541 43.0076C10.4126 43.0021 9.64134 42.7707 9.09074 41.8965C9.05372 41.8377 8.96768 41.8282 8.9103 41.8674C8.5709 42.0989 7.71326 42.2342 6.24202 41.376C6.22662 41.3671 6.20906 41.3622 6.19154 41.3589C5.99874 41.3231 5.10287 40.9651 3.79371 39.7397C3.7778 39.7248 3.75793 39.7153 3.73631 39.7125C2.44421 39.5448 -0.00802501 37.5058 0.547097 34.242C0.315017 33.5705 0.200933 32.7925 0.269988 31.8993C0.355697 30.7907 0.727905 29.911 1.25 29.22C2.42803 27.6608 4.36916 27.0624 5.50407 26.9635C5.51371 26.9626 5.5229 26.9605 5.5319 26.9569Z" fill="var(--fill-0, #9EB8A9)"/>
<path d="M7.61765 26.1394L5.5319 26.9569C5.5229 26.9605 5.51371 26.9626 5.50407 26.9635C4.36916 27.0624 2.42803 27.6608 1.25 29.22M7.61765 26.1394C5.25 28.242 11.25 31.242 21.25 24.742M7.61765 26.1394L14.5878 22.242M1.25 29.22C0.727905 29.911 0.355697 30.7907 0.269988 31.8993C-0.00944685 35.5137 2.70993 37.2419 4.11161 37.6571C4.11653 37.6586 4.1208 37.6602 4.12544 37.6624C5.87993 38.486 10.4924 40.0451 14.9653 39.7163C17.2979 39.8535 23.1527 39.6341 27.9112 37.6592C32.6697 35.6844 36.1919 33.8193 37.3582 33.1336C39.3409 32.1736 43.7962 30.1713 45.7555 29.8422C47.7149 29.5131 52.1702 28.0594 54.1529 27.3737L56.9425 26.1436C56.9488 26.1408 56.9547 26.1375 56.9603 26.1334C57.982 25.3968 59.2656 24.0326 59.8632 22.2957C60.4936 20.4633 60.3606 18.2163 58.3515 15.8539M38.75 9.24203C40.4136 10.5729 44.8334 12.7339 49.2253 10.7532C49.2413 10.746 49.2554 10.7345 49.2656 10.7202L51.7382 7.2586C51.746 7.24767 51.7515 7.23542 51.7544 7.22231C52.2384 5.0562 53.2788 2.38616 54.9847 4.45947C55.6396 5.25547 56.3927 6.75064 57.25 9.24192L58.3515 15.8539M58.3515 15.8539C57.3726 17.8899 53.9996 21.7721 47.5826 23.742M59.8632 22.2957L63.2253 27.3366C63.241 27.3602 63.2464 27.3882 63.239 27.4156C62.8676 28.7994 61.1951 31.7204 57.3499 32.7099C57.32 32.7176 57.2879 32.7108 57.2625 32.6932C56.8905 32.4364 56.0267 32.2779 55.2225 33.5141C55.2097 33.5337 55.1904 33.5489 55.1682 33.556L51.4173 34.7589C51.3788 34.7712 51.3372 34.7591 51.309 34.7302C50.9221 34.3334 49.9079 33.9298 48.5725 35.174C48.561 35.1847 48.5475 35.1928 48.5324 35.1972C47.5868 35.471 45.3946 35.8438 44.0061 35.1907C42.2567 34.3679 39.8074 35.6021 36.3085 38.4821C33.6743 40.6503 32.2796 40.8023 31.8328 40.5841C31.7884 40.5624 31.7336 40.5641 31.6972 40.5975C31.0866 41.1585 29.787 42.173 28.975 42.1848C28.9655 42.1849 28.9567 42.1861 28.9475 42.1888C28.4761 42.3258 27.2936 42.5912 26.1934 42.5962C26.1728 42.5963 26.1533 42.6023 26.1363 42.6141C25.5356 43.0309 24.0425 43.8306 22.6629 43.8306C21.3647 43.8306 20.5682 43.5946 20.2735 43.4509C20.2365 43.4329 20.1924 43.4358 20.16 43.4612L19.1964 44.2166C19.1756 44.2329 19.1493 44.2403 19.1231 44.2372L15.686 43.833C15.6722 43.8314 15.6592 43.8271 15.6472 43.8201C15.5733 43.7766 15.2524 43.5879 14.3638 43.0655C14.3118 43.0349 14.243 43.0572 14.2 43.0995C13.9424 43.3526 13.0158 43.5936 10.7794 43.011C10.7711 43.0089 10.7627 43.0078 10.7541 43.0076C10.4126 43.0021 9.64134 42.7707 9.09074 41.8965C9.05372 41.8377 8.96768 41.8282 8.9103 41.8674C8.5709 42.0989 7.71326 42.2342 6.24202 41.376C6.22662 41.3671 6.20906 41.3622 6.19154 41.3589C5.99874 41.3231 5.10287 40.9651 3.79371 39.7397C3.7778 39.7248 3.75793 39.7153 3.73631 39.7125C2.44421 39.5448 -0.00802501 37.5058 0.547097 34.242M1.25 29.22C1.96829 35.1979 9.01721 35.1907 15.6651 34.6082C20.2803 34.2039 23.8299 32.7386 27.9112 30.586M47.5826 23.742C46.4083 24.1024 45.1321 24.3989 43.75 24.6082C43.4337 24.6561 43.112 24.6995 42.7846 24.738C42.7622 24.7406 42.7407 24.736 42.721 24.725C42.0067 24.329 39.2721 24.322 33.75 27.3737C31.6096 28.5565 29.7088 29.6379 27.9112 30.586M27.9112 30.586C25.2198 29.4535 20.1197 26.6991 21.25 24.742M38.75 9.24203L32.75 15.242L32.25 15.7587L27.9185 20.2345C27.9136 20.2395 27.9083 20.244 27.9026 20.2479L21.25 24.742M38.75 9.24203C37.0887 8.24524 33.5727 6.851 32.7578 9.21898C32.7527 9.23366 32.7443 9.24772 32.7333 9.2587L30.25 11.742M38.75 9.24203C38.8701 9.26778 38.9885 9.29249 39.1052 9.31618M57.25 9.24192C56.75 10.4086 55.05 13.042 52.25 14.242C49.45 15.442 47.9718 21.0753 47.5826 23.742M43.75 24.6082C42.75 22.3306 39.05 17.3721 32.25 15.7587M54.9847 4.45947C54.9065 2.55364 53.95 -0.258031 50.75 3.74197C46.8187 8.65616 45.7852 10.6725 39.1052 9.31618M27.25 7.74201C27.0833 8.40867 27.45 10.142 30.25 11.742C31.75 12.242 30.75 15.742 28.75 13.242L25.7714 10.2634C25.7574 10.2495 25.748 10.2322 25.7443 10.2128C25.5851 9.37037 25.6685 7.74201 27.25 7.74201ZM28.75 13.242L26.3364 15.6718C26.2918 15.7167 26.2997 15.7911 26.35 15.8294C26.3574 15.8351 26.3648 15.8408 26.3721 15.8465M27.25 7.74201C29.9983 4.60106 31.6869 1.52435 32.2211 0.308597C32.2388 0.268261 32.2808 0.245342 32.3245 0.250775C36.771 0.803367 38.6559 6.3082 39.1052 9.31618M26.3721 15.8465C27.7206 16.9068 27.1936 19.6715 25.25 17.242L22.7732 14.2698C22.7582 14.2519 22.75 14.2292 22.7501 14.2058C22.7516 13.9896 22.7663 13.7289 22.8006 13.4674M25.25 17.242L22.75 19.242M23.75 12.242L25.75 9.74201M23.75 12.242C23.75 13.842 25.4981 15.3117 26.3721 15.8465M23.75 12.242C23.164 11.949 22.9 12.7112 22.8006 13.4674M22.75 19.242C24.25 21.242 22.25 21.742 21.25 20.242M22.8006 13.4674L21.25 15.242C20.45 16.042 21.9167 18.242 22.75 19.242M21.25 20.242L19.75 17.242M21.25 20.242L18.75 22.242M19.75 17.242C19.5833 16.742 19.65 15.642 21.25 15.242M16.25 20.242C16.25 19.9087 16.55 19.242 17.75 19.242L19.75 17.242M17.4803 23.0268C18.8488 24.587 19.6979 23.1899 18.75 22.242C17.9167 21.0753 16.55 18.842 17.75 19.242M16.25 20.242L17.2451 22.7297C17.2483 22.7379 17.2527 22.7456 17.2579 22.7526C17.3334 22.8527 17.4076 22.9439 17.4803 23.0268M17.4803 23.0268C16.4428 23.5039 14.6788 23.6131 14.5878 22.242C14.5699 21.9734 14.6163 21.648 14.7449 21.2575C14.7482 21.2473 14.7498 21.2365 14.7509 21.2258C14.7694 21.0486 15.0871 20.6297 16.25 20.242" stroke="var(--stroke-0, black)" stroke-width="0.5"/>
</g>
</g>
</svg>
