<svg preserveAspectRatio="none" width="100%" height="100%" overflow="visible" style="display: block;" viewBox="0 0 81.5004 29.5" fill="none" xmlns="http://www.w3.org/2000/svg">
<g id="Mary Jane">
<g id="Vector 81">
<path d="M1.76556 25.7054L2.06109 22.8565L1.47004 22.5716C0.977492 21.2421 0.0515071 18.0133 0.287929 15.7341C0.58289 12.8906 1.38269 8.11727 3.73641 5.26638C3.66983 5.24171 3.60393 5.21725 3.53873 5.19301L6.494 5.4779L15.9509 8.04196L26.2943 10.8909C26.4913 9.94125 27.4976 7.48631 30.0982 6.80256C31.4773 4.71333 34.51 0.805635 35.4556 0.349803C36.2687 -0.042073 37.7223 0.801331 38.615 1.46808C38.8242 1.4203 38.9627 1.5092 39.002 1.77428C38.9035 2.91385 38.5882 5.42092 38.1154 6.33258C37.6425 7.24424 35.9482 11.0808 35.1601 12.8852L44.617 14.8794L48.7544 15.4492C50.1335 15.8291 53.4828 16.3609 55.847 15.4492C58.2112 14.5375 59.7874 13.7398 60.2799 13.4549L64.1218 14.8794C67.7666 15.5442 75.2336 16.9876 75.9428 17.4435C76.8294 18.0133 83.6266 19.7226 80.3758 22.8565L80.25 23.75C78.3783 24.3198 74.8198 25.5915 72.6921 26.2752C70.5643 26.9589 59.7874 28.4594 54.6649 29.1241C51.5126 29.2191 44.9125 29.3521 43.7304 29.1241C42.5483 28.8962 32.9929 27.6997 28.363 27.1299L22.4525 26.4392L18.6106 27.4148C18.5121 27.6047 15.0052 27.5287 1.76556 25.7054Z" fill="var(--fill-0, #B9A9A9)"/>
<path d="M2.06109 22.8565L1.76556 25.7054C15.0052 27.5287 18.5121 27.6047 18.6106 27.4148M2.06109 22.8565L1.47004 22.5716C0.977492 21.2421 0.0515071 18.0133 0.287929 15.7341C0.583456 12.8852 1.38576 8.09893 3.74998 5.24999M2.06109 22.8565L13.8822 23.996L23.0435 25.1356L31.9093 26.4392L41.3662 27.6997C42.9423 27.9846 47.5723 28.3834 53.4828 27.6997C59.3933 27.0159 69.1457 25.5155 73.2831 24.8507L80.3758 22.8565M26.2943 12.5005C25.1122 12.7284 10.4344 7.75706 3.53873 5.19301L6.494 5.4779L15.9509 8.04196L26.2943 10.8909M31.388 6.97039C31.1199 6.8585 30.4867 6.66829 30.0982 6.80256C27.4976 7.48631 26.4913 9.94125 26.2943 10.8909M26.2943 10.8909C26.5772 11.7123 27.7931 13.3551 30.3937 13.3551M30.0982 6.80256C31.4773 4.71333 34.51 0.805635 35.4556 0.349803C36.4013 -0.106028 38.2139 1.10952 39.002 1.77428M26.8474 11.9307L21.8235 18.1983L25.7033 18.7681L30.3937 13.5345L31.5758 12.2156C32.2654 11.4558 33.8598 9.8083 33.387 8.89663C33.3298 8.78641 33.3334 8.61223 33.387 8.38929C33.8867 6.30725 38.735 -0.0270942 39.002 1.77428C38.9035 2.91385 38.5882 5.42092 38.1154 6.33258C37.6425 7.24424 35.9482 11.0808 35.1601 12.8852M35.1601 12.8852L31.5758 12.2156M80.3758 22.8565C83.6266 19.7226 76.8294 18.0133 75.9428 17.4435C75.2336 16.9876 67.7666 15.5442 64.1218 14.8794L60.2799 13.4549C59.7874 13.7398 58.2112 14.5375 55.847 15.4492C53.4828 16.3609 50.1335 15.8291 48.7544 15.4492L44.617 14.8794L35.1601 12.8852M60.2799 13.4549C57.9039 18.2539 49.6033 17.9845 45.75 17.25L41.3662 16.25L35.4556 14.8794L30.3937 13.5345M80.3758 22.8565L80.25 23.75C78.3783 24.3198 74.8198 25.5915 72.6921 26.2752C70.5643 26.9589 59.7874 28.4594 54.6649 29.1241C51.5126 29.2191 44.9125 29.3521 43.7304 29.1241C42.5483 28.8962 32.9929 27.6997 28.363 27.1299L22.4525 26.4392M18.6106 27.4148V25.9903L22.4525 26.4392M18.6106 27.4148L22.4525 26.4392M31.8714 7.94214C32.2654 8.322 32.8171 9.36661 31.8714 10.5062C30.6893 11.9307 30.0982 13.0702 28.325 12.2156C26.5749 11.372 28.0079 8.38439 29.75 7.74999C29.8714 7.66288 30.2755 7.54094 30.9848 7.74999M31.5758 6.51767L31.388 6.97039L31.1864 7.45627L30.9848 7.94214M31.388 6.97039C31.4506 6.71666 31.6941 6.32787 32.1669 6.80256C32.0417 7.27738 31.7106 8.22703 31.388 8.22703C30.9848 8.22703 30.9848 8.10997 31.1864 7.45627M33.387 8.38929C33.097 8.04245 32.4229 7.35349 32.0464 7.37235" stroke="var(--stroke-0, black)" stroke-width="0.5"/>
</g>
</g>
</svg>
