<svg preserveAspectRatio="none" width="100%" height="100%" overflow="visible" style="display: block;" viewBox="0 0 62.1499 21.5" fill="none" xmlns="http://www.w3.org/2000/svg">
<g id="Almindelige briller">
<path id="Vector 4" d="M5.47457 0.886364L1.64322 1.52273L1.29491 1.84091L0.598305 2.15909L0.25 2.79545V3.43182V4.06818V5.02273V5.97727L0.598305 6.29545L1.29491 6.61364L1.99152 6.93182L2.33983 7.56818V8.52273V9.47727V10.4318V11.3864L2.68813 12.6591L3.03644 13.9318L3.38474 15.2045L4.42965 16.7955L5.47457 18.0682L6.51948 19.0227L7.5644 19.6591L8.60931 20.2955L10.0025 20.6136L11.3957 20.9318H12.789H14.1822H15.9237H16.6203L18.0135 20.6136L19.7551 19.9773L21.1483 19.3409L22.1932 18.7045L23.2381 18.0682L23.9347 17.4318L24.6313 16.7955L25.3279 16.1591L26.0245 15.2045L26.3728 14.5682L26.7211 13.9318L27.0695 13.2955L27.4178 12.6591L27.7661 11.7045L28.1144 11.0682L28.4627 10.4318L28.811 9.79545L29.1593 9.15909L29.5076 8.52273L29.8559 7.88636L30.5525 7.25L30.9008 6.93182H31.2491L31.5974 7.25L32.294 8.20455L32.9906 9.47727L33.6872 10.75L34.0355 11.7045L34.7322 13.2955L35.4288 14.8864L36.4737 16.1591L37.5186 17.1136L38.5635 18.0682L39.9567 19.0227L41.6982 19.9773L43.4398 20.6136L45.5296 20.9318L47.2711 21.25H49.7092L51.4508 20.9318L52.844 20.6136L54.5855 19.9773L56.327 18.7045L57.3719 17.4318L58.0686 16.1591L58.7652 14.8864L59.1135 13.9318L59.4618 12.3409L59.8101 11.0682V9.79545V8.84091V7.56818L60.1584 6.93182L60.855 6.61364L61.5516 6.29545L61.8999 5.65909V4.38636V2.79545L61.5516 2.15909L61.2033 1.52273L58.7652 1.20455L56.327 0.886364L53.8889 0.568182L50.4059 0.25H46.5745L43.4398 0.568182L41.0016 0.886364L36.4737 1.52273L32.6423 2.15909H29.5076L26.3728 1.84091L22.8898 1.52273L18.7101 0.886364L14.5305 0.568182H10.3508L5.47457 0.886364Z" fill="var(--fill-0, #B6A6B9)" stroke="var(--stroke-0, black)" stroke-width="0.5"/>
<path id="Vector 6" d="M22.8898 4.70456L24.9796 5.65911L25.3279 5.97729L25.6762 6.29547L26.0245 6.61365V7.25002L25.6762 7.88638V8.20456V8.52274V8.84093L25.3279 9.47729L24.9796 10.1137L24.6313 10.75V11.0682L24.283 11.7046L23.9347 12.3409L23.5864 12.6591V12.9773L23.2381 13.2955V13.6137L22.8898 13.9318L22.5414 14.25L22.1931 14.5682L21.8448 14.8864L21.4965 15.2046L20.7999 15.8409L20.4516 16.1591L20.1033 16.4773L19.755 16.7955L18.7101 17.1137L17.6652 17.4318L16.9686 17.75L16.272 18.0682H15.9237H15.5754H14.8787H13.8338H13.1372H12.4406H11.744L11.0474 17.75H10.3508L9.65418 17.4318L8.95757 17.1137L8.26096 16.4773L7.56435 16.1591L7.21605 15.5227L6.86774 14.8864L6.51944 14.25L6.17113 13.6137L5.82283 12.9773V12.3409L5.47453 11.7046V11.0682L5.12622 10.1137V9.47729V8.84093V7.88638V6.93183V6.29547V5.34093L5.47453 4.70456L5.82283 4.0682L6.86774 3.75002L8.26096 3.43183L9.65418 3.11365H10.6991L12.4406 2.79547H13.8338H15.2271L16.9686 3.11365L18.7101 3.43183L20.7999 4.0682L22.8898 4.70456Z" fill="var(--fill-0, #B9A9A9)" stroke="var(--stroke-0, black)" stroke-width="0.5"/>
<path id="Vector 12" d="M38.9118 4.70456L36.8219 5.65911L36.4736 5.97729L36.1253 6.29547L35.777 6.61365V7.25002L36.1253 7.88638V8.20456V8.52274V8.84093L36.4736 9.47729L36.8219 10.1137L37.1702 10.75V11.0682L37.5185 11.7046L37.8668 12.3409L38.2152 12.6591V12.9773L38.5635 13.2955V13.6137L38.9118 13.9318L39.2601 14.25L39.6084 14.5682L39.9567 14.8864L40.305 15.2046L41.0016 15.8409L41.3499 16.1591L41.6982 16.4773L42.0465 16.7955L43.0914 17.1137L44.1363 17.4318L44.8329 17.75L45.5295 18.0682H45.8779H46.2262H46.9228H47.9677H48.6643H49.3609H50.0575L50.7541 17.75H51.4507L52.1473 17.4318L52.8439 17.1137L53.5406 16.4773L54.2372 16.1591L54.5855 15.5227L54.9338 14.8864L55.2821 14.25L55.6304 13.6137L55.9787 12.9773V12.3409L56.327 11.7046V11.0682L56.6753 10.1137V9.47729V8.84093V7.88638V6.93183V6.29547V5.34093L56.327 4.70456L55.9787 4.0682L54.9338 3.75002L53.5406 3.43183L52.1473 3.11365H51.1024L49.3609 2.79547H47.9677H46.5745L44.8329 3.11365L43.0914 3.43183L41.0016 4.0682L38.9118 4.70456Z" fill="var(--fill-0, #B9A9A9)" stroke="var(--stroke-0, black)" stroke-width="0.5"/>
</g>
</svg>
