<svg preserveAspectRatio="none" width="100%" height="100%" overflow="visible" style="display: block;" viewBox="0 0 62.5242 77.5129" fill="none" xmlns="http://www.w3.org/2000/svg">
<g id="Blazer">
<g id="Vector 26">
<path d="M7.53607 10.37L8.80138 9.77538L10.6993 8.5862L12.9136 7.39701L14.8116 6.50511L17.3422 5.61322L19.5565 4.72133L21.4544 3.82944L23.3524 2.34295L25.5667 0.559168H26.1993H27.781H29.6789H31.8932H34.1075L36.6381 0.261871L38.2197 1.74836L40.7504 3.53214L49.9238 7.39701L52.4544 8.5862L53.7197 9.47809L54.6687 10.0727L55.6177 11.2619L56.2504 12.7484L56.883 13.9375L57.1993 16.3159L57.832 18.397L58.4646 23.4511L58.781 27.0186L62.2606 71.3159L60.0463 72.2078L57.1993 72.5051H54.9851L51.5055 37.7213L53.7197 72.5051L54.0361 75.4781L51.8218 76.0727L49.2912 76.37L47.3932 76.9646L45.1789 77.2619H43.5973H41.0667L38.5361 76.9646L36.3218 76.37L34.4238 75.1808L32.5259 73.6943L31.3398 72.0222L29.0463 74.8835L26.832 76.37L23.9851 76.9646L20.8218 77.2619L17.3422 76.9646L14.4953 76.6673L12.281 76.0727L8.80138 75.4781L9.11771 69.5321L9.43403 62.0997L9.75036 57.343L10.0667 54.0727L10.383 51.0997L11.0157 38.3159V36.5321L10.6993 38.9105L10.383 42.7754L10.0667 46.9375L9.11771 56.4511L8.80138 61.5051L8.16873 65.9646L7.53607 72.5051H5.32179L1.8422 72.2078L0.260564 71.3159L2.47485 40.0997L3.1075 36.5321V33.8565L3.42383 30.5862L3.74016 28.2078L4.37281 23.7484V21.0727L5.00546 18.6943L5.32179 16.0186L5.95444 13.6402L6.58709 11.5592L7.53607 10.37Z" fill="var(--fill-0, #B9A9A9)"/>
<path d="M8.80138 9.77538L7.53607 10.37L6.58709 11.5592L5.95444 13.6402L5.32179 16.0186L5.00546 18.6943L4.37281 21.0727V23.7484L3.74016 28.2078L3.42383 30.5862L3.1075 33.8565V36.5321L2.47485 40.0997L0.260564 71.3159L1.8422 72.2078L5.32179 72.5051H7.53607L8.16873 65.9646L8.80138 61.5051L9.11771 56.4511L10.0667 46.9375L10.383 42.7754L10.6993 38.9105L11.0157 36.5321M8.80138 9.77538L9.75036 13.6402L10.0667 16.0186L10.383 18.9916L10.6993 22.5592L11.0157 25.2348V28.8024V32.0727V36.5321M8.80138 9.77538L10.6993 8.5862L12.9136 7.39701L14.8116 6.50511L17.3422 5.61322L19.5565 4.72133L21.4544 3.82944M11.0157 36.5321V38.3159L10.383 51.0997L10.0667 54.0727L9.75036 57.343L9.43403 62.0997L9.11771 69.5321L8.80138 75.4781L12.281 76.0727L14.4953 76.6673L17.3422 76.9646L20.8218 77.2619L23.9851 76.9646L26.832 76.37M21.4544 3.82944L20.8218 5.91052L20.7691 6.20782M21.4544 3.82944L20.7691 6.20782M40.7504 3.53214L38.2197 1.74836L36.6381 0.261871L34.1075 0.559168H31.8932H29.6789H27.781H26.1993H25.5667L23.3524 2.34295L21.4544 3.82944M20.7163 6.50511L20.5055 7.6943L20.2946 9.47809L20.1891 10.37L22.7197 10.9646M40.7504 3.53214L41.383 5.91052L42.0157 7.9916L42.332 10.37L39.8014 10.9646L36.5634 9.47809L31.2606 30.5862L30.3116 34.1538L23.6687 21.6673L19.8728 13.0457L22.7197 10.9646M31.2606 30.5862L31.178 30.2889L29.3626 23.7484L27.781 17.8024L26.832 13.6402L25.883 9.18079L22.7197 10.9646M31.2606 30.5862L36.3218 10.0727M20.7691 6.20782L20.7163 6.50511M20.7163 6.50511L20.2946 9.47809M37.2708 4.42403V3.82944V2.04565L36.6381 0.261871M37.2708 2.04565L25.5667 2.34295L25.883 0.856466L25.2504 2.64025V4.42403L26.5157 10.9646L31.178 30.2889M36.3218 10.0727L36.9544 7.6943L37.2708 5.61322V4.42403M36.3218 10.0727L37.2708 4.42403M40.7504 3.53214L49.9238 7.39701L52.4544 8.5862L53.7197 9.47809M36.5634 9.47809L30.3116 34.7484L29.0463 40.6943L37.2708 24.9375L40.7504 17.8024L42.6483 13.0457L39.8014 11.2619M53.7197 9.47809V9.77538L52.7708 13.6402L52.1381 18.0997L51.5055 23.4511V29.6943V37.7213L53.7197 72.5051L54.0361 75.4781L51.8218 76.0727L49.2912 76.37L47.3932 76.9646L45.1789 77.2619H43.5973H41.0667L38.5361 76.9646L36.3218 76.37L34.4238 75.1808L32.5259 73.6943L31.3398 72.0222L31.2606 71.9105L29.9953 68.9375L29.3626 64.4781L29.0463 60.0186V55.5592L28.73 50.8024L29.0463 45.7484V40.9916M51.5055 37.7213L54.9851 72.5051H57.1993L60.0463 72.2078L62.2606 71.3159L58.781 27.0186L58.4646 23.4511L57.832 18.397L57.1993 16.3159L56.883 13.9375L56.2504 12.7484L55.6177 11.2619L54.6687 10.0727L53.7197 9.47809M35.3728 76.37H26.832M26.832 76.37L29.0463 74.8835L31.3398 72.0222M10.0667 58.2348L22.7197 58.8294L23.3524 58.5321V57.6403L23.5937 54.4654M20.337 53.4035L10.383 53.1808V54.0727L23.3524 54.37L23.5937 54.4654L23.6687 53.4781L20.337 53.4035ZM20.337 53.4035V48.5784V45.4511L20.1891 39.8024L19.8728 31.1808M28.4136 3.23484V3.82944H34.1075V3.23484H28.4136Z" stroke="var(--stroke-0, black)" stroke-width="0.5"/>
</g>
<g id="Vector 32">
<path d="M30.735 46.386L31.0514 45.4941L31.6224 44.9574L32.633 44.8996L33.2657 45.4941V46.386L32.3167 46.9806H31.3677L30.735 46.386Z" fill="var(--fill-0, #B9A9A9)"/>
<path d="M31.684 44.8996L31.6224 44.9574M31.6224 44.9574L31.0514 45.4941L30.735 46.386L31.3677 46.9806H32.3167L33.2657 46.386V45.4941L32.633 44.8996L31.6224 44.9574Z" stroke="var(--stroke-0, black)" stroke-width="0.5"/>
</g>
<path id="Vector 33" d="M31.605 51.5952H32.554L32.8703 52.1898L33.1867 53.0817L32.2377 53.6763H31.605L30.9724 53.0817V52.1898L31.605 51.5952Z" fill="var(--fill-0, #B9A9A9)" stroke="var(--stroke-0, black)" stroke-width="0.5"/>
<g id="Vector 34">
<path d="M39.1419 53.8055L42.3051 53.5082L52.1112 53.211L52.7439 58.5623L39.7745 59.1569L39.1419 58.5623V54.6974V53.8055Z" fill="var(--fill-0, #B9A9A9)"/>
<path d="M42.6214 31.5082L42.3051 53.5082M42.3051 53.5082L39.1419 53.8055V54.6974M42.3051 53.5082L52.1112 53.2109L52.7439 58.5623L39.7745 59.1569L39.1419 58.5623V54.6974M39.1419 54.6974L51.7949 54.4001" stroke="var(--stroke-0, black)" stroke-width="0.5"/>
</g>
</g>
</svg>
