<svg preserveAspectRatio="none" width="100%" height="100%" overflow="visible" style="display: block;" viewBox="0 0 82.3764 83" fill="none" xmlns="http://www.w3.org/2000/svg">
<g id="Group 102">
<g id="Sweater og skjorte">
<path id="Vector 35" d="M79.5005 76.5424L77.2036 80.9272" stroke="var(--stroke-0, black)" stroke-width="0.5"/>
<g id="Vector 24">
<path d="M15 80C13.775 80.3654 10.0422 81.2195 5.99964 80.9272C5.38713 80.0746 4.07024 78.0771 3.70274 76.9078C3.24336 75.4462 2.3246 75.8116 1.86522 71.0613C1.49771 67.2611 1.40584 65.0931 1.40584 64.4841C1.09958 63.5096 0.670828 60.5377 1.40584 56.4452C2.14084 52.3527 2.63081 48.6499 2.78391 47.3101L3.70267 37.8096C4.31518 34.7645 5.72394 28.4552 6.45895 27.5783C7.37771 26.4821 10.5934 18.4432 15.6466 14.7891L27.1728 10.8792C27.1559 10.8407 27.1419 10.8041 27.1311 10.7697L27.1734 10.879L27.1728 10.8792C27.733 12.1491 31.568 15.5814 33.5 17C36.5 18.6257 44 20.8017 50 16.5L56.5767 10.7862L67.5565 14.7891C68.191 15.0205 71.1165 18.3594 72.5 20L77.5 29L78 31.5L79 35V37L80 43V44L81 51L82 56V59C82.1667 60 82.3 62.2 81.5 63C80.7 63.8 80.8333 68.6667 81 71C81 72.6 80 75.3333 79.5 76.5L77.1027 80.8151C77.1663 80.8904 77.1387 80.9538 77 81C75.8 81.4 70.5 80.5 68 80C67.8895 79.7789 67.9317 79.6128 68.0922 79.4929L68.8182 75.5L69 74.5V70.5V66V60.5L68.5 57L68 53V49L67.5565 45.483C66.8017 49.0695 67.2043 56.6554 67.5 60C67.8333 62 68.3 67.2 67.5 72C66.7927 76.2438 66.1808 77.3732 65.8834 77.4452C65.8444 77.4546 65.8108 77.4459 65.7831 77.4236C64.1704 77.1489 54.678 78.2203 50 79L41 79.5L32 79L22 77.5L17 77L15.5 72V65.5V60L16 55V52.5V43L15 50L14.5 54.5V57V58.5L14 63.5V72V75.5L15 80Z" fill="var(--fill-0, #A9AEB9)"/>
<path d="M14 75.5L15 80C13.775 80.3654 10.0422 81.2195 5.99964 80.9272C5.38713 80.0746 4.07024 78.0771 3.70274 76.9078C3.24336 75.4462 2.3246 75.8116 1.86522 71.0613C1.49771 67.2611 1.40584 65.0931 1.40584 64.4841C1.09958 63.5096 0.670828 60.5377 1.40584 56.4452C2.14084 52.3527 2.63081 48.6499 2.78391 47.3101L3.70267 37.8096C4.31518 34.7645 5.72394 28.4552 6.45895 27.5783C7.37771 26.4821 10.5934 18.4432 15.6466 14.7891L27.1734 10.879L27.1311 10.7697C27.4986 11.939 31.5094 15.5384 33.5 17C36.5 18.6257 44 20.8017 50 16.5L56.5767 10.7862M15 80C12.4275 79.7077 7.83716 80.5618 5.99964 80.9272M3.70274 76.9078C7.46493 75.234 12.1352 75.2719 14 75.5M65.7831 77.4236C64.1704 77.1489 54.678 78.2203 50 79L41 79.5L32 79L22 77.5L17 77L15.5 72V65.5V60L16 55V52.5V43L15.5 35V26L15.6466 14.7891M48.7219 14.0583C47.3438 15.0327 45.0469 16.2508 41.3718 16.2508C39.8406 16.129 36.5024 15.5199 35.3999 14.0583M67.5565 14.7891L56.5314 10.7697L54.2345 9.3081L53.517 8.64227L53.7407 9.3081M67.5565 14.7891V22.4626V35.2517V42.5598V45.483M77 81L79.5 76.5C80 75.3333 81 72.6 81 71C80.8333 68.6667 80.7 63.8 81.5 63C82.3 62.2 82.1667 60 82 59V56L81 51L80 44V43L79 37V35L78 31.5L77.5 29L72.5 20C71.1165 18.3594 68.191 15.0205 67.5565 14.7891M67.5565 45.483C66.8017 49.0695 67.2043 56.6554 67.5 60C67.8333 62 68.3 67.2 67.5 72M67.5565 45.483L68 49V53L68.5 57L69 60.5V66V70.5V74.5L68.8182 75.5M14 75.5V72V63.5L14.5 58.5V57V54.5L15 50L16 43M15.5 72L31 74H35.5H42H46.5L54.5 73.5L61.5 72.5L67.5 72M66 77.5C65.9678 77.4678 65.8941 77.4425 65.7831 77.4236M65.7831 77.4236C66.0221 77.6157 66.7 76.8 67.5 72M77 81C78.5 80.5 67 78 68 80C70.5 80.5 75.8 81.4 77 81ZM68 80L68.8182 75.5M79.5 76.5C77.3788 75.8333 72.2727 74.7 68.8182 75.5" stroke="var(--stroke-0, black)" stroke-width="0.5"/>
</g>
<g id="Vector 44">
<path d="M29.8875 9.39838C30.4828 7.70369 31.6735 4.14485 31.6735 3.46697C31.6735 3.37693 31.7435 3.29088 31.8696 3.20901C32.6928 2.67453 35.906 2.31841 37.6269 2.19594C45.239 1.72488 49.2672 2.18128 51.1498 2.74057C51.3592 2.77696 51.5117 2.82947 51.6135 2.89593C52.1357 3.0945 52.4145 3.29638 52.5104 3.46695L53.5 9L56.5 11L52 15C44 21.8 36.5 18.5 33.5 17C32.8548 16.6774 28.8333 12.8333 27 11L29.8875 9.39838Z" fill="var(--fill-0, #A9AEB9)"/>
<path d="M29.8875 9.39838C30.4828 7.70369 31.6735 4.14485 31.6735 3.46697C31.6735 3.37693 31.7435 3.29088 31.8696 3.20901M29.8875 9.39838L32.5 14C33.1667 15.3333 34.2891 17.0682 35.5 14M29.8875 9.39838L27 11C28.8333 12.8333 32.8548 16.6774 33.5 17C36.5 18.5 44 21.8 52 15L56.5 11L53.5 9M53.5 9L52.5104 3.46695C52.3893 3.25152 51.9763 2.98613 51.1498 2.74057C49.2672 2.18128 45.239 1.72488 37.6269 2.19594C35.906 2.31841 32.6928 2.67453 31.8696 3.20901M31.8696 3.20901C32.598 3.8599 34.7692 5.41586 37.6269 6.43268L38.8176 6.85635L40.6036 7.70369M40.6036 7.70369C41.1989 7.84492 42.6277 8.04263 43.5803 7.70369M40.6036 7.70369C39.2357 8.46913 36.6036 11.2037 35.5 14M43.5803 7.70369C44.5328 7.36475 44.771 7.28002 44.771 7.28002C47.9472 5.9493 53.6696 3.17841 51.1498 2.74057M43.5803 7.70369C43.9585 7.51056 46.3579 11.3487 48.2866 14.2363M35.5 14C37.5244 15.4908 42.9159 17.6253 48.2866 14.2363M53.5 9C53.0776 10.2671 51.6562 13.2469 50.2605 15.1061C49.8907 15.5987 49.1743 15.5461 48.827 15.0373C48.6527 14.782 48.4718 14.5135 48.2866 14.2363" stroke="var(--stroke-0, black)" stroke-width="0.5"/>
</g>
<g id="Group 70">
<path id="Vector 58" d="M42.75 10.0389L43.6688 10.7697" stroke="var(--stroke-0, black)" stroke-width="0.1"/>
<path id="Vector 59" d="M43.6688 10.0389L42.75 10.7697" stroke="var(--stroke-0, black)" stroke-width="0.1"/>
<path id="Ellipse 23" d="M43.1174 9.40765C43.7951 9.40765 44.304 9.84179 44.304 10.3315C44.3037 10.8211 43.795 11.2543 43.1174 11.2543C42.4399 11.2543 41.9311 10.821 41.9309 10.3315C41.9309 9.84182 42.4398 9.40771 43.1174 9.40765Z" stroke="var(--stroke-0, black)" stroke-width="0.2"/>
</g>
<path id="Vector 51" d="M40.9124 12.4331V15.8853V16.2507" stroke="var(--stroke-0, black)" stroke-width="0.5"/>
<path id="Vector 45" d="M43.2937 7.88567C42.3015 7.74444 40.9124 7.88564 40.9124 10.004L40.9124 12.5461" stroke="var(--stroke-0, black)" stroke-width="0.5"/>
<g id="Group 71">
<path id="Vector 58_2" d="M42.75 13.6929L43.6688 14.4237" stroke="var(--stroke-0, black)" stroke-width="0.1"/>
<path id="Ellipse 25" d="M43.1174 13.0617C43.7951 13.0617 44.304 13.4958 44.304 13.9855C44.3037 14.4751 43.795 14.9084 43.1174 14.9084C42.4399 14.9083 41.9311 14.4751 41.9309 13.9855C41.9309 13.4959 42.4398 13.0618 43.1174 13.0617Z" stroke="var(--stroke-0, black)" stroke-width="0.2"/>
<path id="Vector 59_2" d="M43.6688 13.6929L42.75 14.4237" stroke="var(--stroke-0, black)" stroke-width="0.1"/>
</g>
</g>
</g>
</svg>
