<svg preserveAspectRatio="none" width="100%" height="100%" overflow="visible" style="display: block;" viewBox="0 0 51.8702 41.7698" fill="none" xmlns="http://www.w3.org/2000/svg">
<g id="Group 62">
<g id="Vector 5">
<path d="M23.9982 41.5198C24.3671 39.6518 23.7214 35.9158 19.294 34.1225C13.8153 31.9034 13.5324 28.4943 13.2557 28.7185C12.0745 29.607 8.93003 30.3196 5.36113 26.7252C5.02826 26.39 4.69126 26.0175 4.35131 25.6044C-0.629585 19.552 0.200631 13.948 0.477348 13.4997C0.754064 13.0514 2.13765 8.56813 7.11854 5.42987C9.8857 3.63658 18.4638 -0.0844751 26.2119 0.274183C29.5325 0.498344 37.2252 1.48465 41.4313 3.6366C46.6889 6.32654 51.3931 13.0514 51.1163 13.948C51.3008 14.4211 51.4729 15.0667 51.5221 15.7373C52.5941 23.0517 44.6223 23.3375 40.1875 22.4722L39.9869 22.4543L39.3 26.8373L38.4125 31.2024C38.5604 31.7315 37.88 33.1865 33.975 34.7738C30.07 36.3611 27.6913 37.3853 26.9901 37.699C27.4346 38.8397 27.7625 40.1553 27.7625 41.5198H23.9982Z" fill="var(--fill-0, #B9A9A9)"/>
<path d="M35.9645 22.0946L39.9869 22.4543L40.1875 22.4722C44.9588 23.4032 53.8244 23.0017 51.1163 13.948C51.3931 13.0514 46.6889 6.32654 41.4313 3.6366C37.2252 1.48465 29.5325 0.498344 26.2119 0.274183C18.4638 -0.0844751 9.8857 3.63658 7.11854 5.42987C2.13765 8.56813 0.754064 13.0514 0.477348 13.4997C0.200631 13.948 -0.629585 19.552 4.35131 25.6044C4.69126 26.0175 5.02826 26.39 5.36113 26.7252C8.93003 30.3196 12.0745 29.607 13.2557 28.7185C13.5324 28.4943 13.8153 31.9034 19.294 34.1225C23.7214 35.9158 24.3671 39.6518 23.9982 41.5198H27.7625C27.7625 40.1553 27.4346 38.8397 26.9901 37.699M13.2557 28.7185L15.3375 26.4405M51.1163 13.948C51.6698 15.3677 52.1125 18.3416 49.456 18.8796C46.1355 19.5521 44.4752 19.5521 37.5572 17.9829C30.6393 16.4138 25.105 15.9655 23.4447 16.1896C21.9689 16.0402 18.4085 16.1448 15.9734 17.7588C12.9295 19.7762 12.3761 19.7762 10.7158 23.3628C9.05547 26.9494 7.75455 26.9494 5.36113 26.7252M15.3375 26.4405L16.6688 24.8532C17.1018 23.0013 19.9267 19.6151 27.7625 20.8849L35.75 22.0754L35.9645 22.0946M26.9901 37.699C26.5101 36.4669 25.8942 35.439 25.4088 34.7738C25.298 34.622 25.194 34.4891 25.1 34.377L21.55 31.996L19.3313 30.4087L16.6688 28.7185L15.3375 26.4405M25.4088 34.7738L28.2063 33.9802L32.2 32.3929L33.975 31.5992C34.5667 31.0701 35.8388 29.1389 36.1938 25.6468L35.9645 22.0946M39.9869 22.4543L39.3 26.8373L38.4125 31.2024C38.5604 31.7315 37.88 33.1865 33.975 34.7738C30.07 36.3611 27.6913 37.3853 26.9901 37.699" stroke="var(--stroke-0, black)" stroke-width="0.5"/>
</g>
<g id="Vector 14">
<path d="M28.475 4.06082C26.704 3.52283 24.601 3.68722 23.7708 3.83666C23.6926 3.90005 23.4659 4.08367 22.9407 4.50914C21.8338 5.40579 22.9407 6.5266 24.601 6.5266C26.2613 6.5266 28.7517 7.19908 29.0284 7.42324C29.2498 7.60257 30.2275 7.79684 30.6887 7.87156C32.6258 7.19908 32.6258 6.30243 32.0723 5.40579C31.6296 4.68847 29.4896 4.21026 28.475 4.06082Z" fill="var(--fill-0, #9EB8A9)"/>
<path d="M23.7708 3.83666C24.601 3.68722 26.704 3.52283 28.475 4.06082C29.4896 4.21026 31.6296 4.68847 32.0723 5.40579C32.6258 6.30243 32.6258 7.19908 30.6887 7.87156C30.2275 7.79684 29.2498 7.60257 29.0284 7.42324C28.7517 7.19908 26.2613 6.5266 24.601 6.5266C22.9407 6.5266 21.8338 5.40579 22.9407 4.50914C23.8262 3.79183 23.8631 3.76194 23.7708 3.83666Z" stroke="var(--stroke-0, black)" stroke-width="0.5"/>
</g>
<g id="Vector 17">
<path d="M42.3108 7.6474C43.4177 9.62002 44.6168 9.81429 45.078 9.66485C45.6666 9.03982 46.4 7.39292 44.625 5.80562C42.85 4.21831 41.0513 3.38328 40.3739 3.16417L39.8204 3.38834C39.1563 3.74699 40.2816 5.18163 40.9273 5.85411L41.7574 6.97492L42.3108 7.6474Z" fill="var(--fill-0, #9EB8A9)"/>
<path d="M36.7766 4.06082C38.1048 3.88149 38.2524 3.08945 38.1601 2.71585V2.49169C37.7154 2.19281 35.8753 1.46056 32.0724 0.922561L32.9025 1.37088C33.5666 1.72954 34.8395 2.71585 35.393 3.16417C36.0571 3.88149 36.5921 4.06082 36.7766 4.06082Z" fill="var(--fill-0, #9EB8A9)"/>
<path d="M42.3108 7.6474C43.4177 9.62002 44.6168 9.81429 45.078 9.66485C45.6666 9.03982 46.4 7.39292 44.625 5.80562C42.85 4.21831 41.0513 3.38328 40.3739 3.16417L39.8204 3.38834C39.1563 3.74699 40.2816 5.18163 40.9273 5.85411L41.7574 6.97492L42.3108 7.6474Z" stroke="var(--stroke-0, black)" stroke-width="0.5"/>
<path d="M36.7766 4.06082C38.1048 3.88149 38.2524 3.08945 38.1601 2.71585V2.49169C37.7154 2.19281 35.8753 1.46056 32.0724 0.922561L32.9025 1.37088C33.5666 1.72954 34.8395 2.71585 35.393 3.16417C36.0571 3.88149 36.5921 4.06082 36.7766 4.06082Z" stroke="var(--stroke-0, black)" stroke-width="0.5"/>
</g>
<path id="Vector 15" d="M40.6507 9.66478L38.437 7.64733C38.068 7.34845 36.9981 6.88518 35.6699 7.42317C34.3416 7.96115 34.7474 8.84285 35.1164 9.21646C34.8397 9.21646 37.3301 10.7856 37.6068 11.0097C37.8835 11.2339 38.9904 12.5789 39.5438 13.0272C40.0973 13.4755 40.9274 13.4755 41.7576 13.0272C42.4217 12.6685 42.0343 11.3833 41.7576 10.7856L40.6507 9.66478Z" fill="var(--fill-0, #9EB8A9)" stroke="var(--stroke-0, black)" stroke-width="0.5"/>
<path id="Vector 94" d="M16.6687 28.8214L15.3375 26.4404L16.6687 24.8531C18.0887 19.7738 26.7271 20.3558 30.8688 21.2817L35.75 22.0753L36.1938 26.4404C35.1287 31.2023 33.8271 31.996 33.0875 31.996L29.0937 33.5833L25.5437 34.7738L23.7688 33.5833L20.2187 31.2023L16.6687 28.8214Z" fill="var(--fill-0, #99CBC7)" stroke="var(--stroke-0, black)" stroke-width="0.5"/>
<g id="Vector 13">
<path d="M16.0229 4.9574L13.8092 5.62989C11.8769 5.97773 10.309 7.33764 9.71137 8.0328C9.60149 8.57679 9.60311 9.66478 10.4886 9.66478C11.5955 9.66478 11.5955 9.88894 12.979 8.99229C14.0859 8.27498 17.1298 7.49788 18.5134 7.199C19.8416 6.66101 19.9892 5.92875 19.897 5.62987L19.3435 4.73324C17.7939 4.37458 16.4841 4.73324 16.0229 4.9574Z" fill="var(--fill-0, #9EB8A9)"/>
<path d="M9.65845 8.09566C9.67514 8.07538 9.69278 8.05441 9.71137 8.0328M9.71137 8.0328C10.309 7.33764 11.8769 5.97773 13.8092 5.62989L16.0229 4.9574C16.4841 4.73324 17.7939 4.37458 19.3435 4.73324L19.897 5.62987C19.9892 5.92875 19.8416 6.66101 18.5134 7.199C17.1298 7.49788 14.0859 8.27498 12.979 8.99229C11.5955 9.88894 11.5955 9.66478 10.4886 9.66478C9.60311 9.66478 9.60149 8.57679 9.71137 8.0328Z" stroke="var(--stroke-0, black)" stroke-width="0.5"/>
</g>
</g>
</svg>
