<svg preserveAspectRatio="none" width="100%" height="100%" overflow="visible" style="display: block;" viewBox="0 0 56.5326 91.5059" fill="none" xmlns="http://www.w3.org/2000/svg">
<g id="Jeans">
<g id="Vector 60">
<path d="M48.2826 0.714677L48.8752 4.89325L50.0604 12.554L50.9492 19.2861L51.8381 27.6432L52.4307 35.304L52.727 40.4111L53.6159 51.3218L56.2826 88.6968V89.6254L55.3937 90.3218L36.1344 91.2504L35.2455 90.7861L34.9492 88.6968L34.0604 79.6432L31.0974 54.5718L29.9122 46.679L28.4307 32.7504L27.8381 38.3218L25.7641 54.5718L22.8011 79.6432L21.6159 90.554L21.0233 91.2504L1.17146 90.3218L0.282574 89.6254L0.578871 88.4647L0.875167 83.1254L1.76406 70.3575L2.94924 54.5718L4.13443 38.3218L5.02332 28.804L5.9122 18.1254L7.68998 4.89325L8.55271 0.83766L8.57887 0.714677L9.75934 0.769081L14.8011 0.482534L18.9492 0.250391H23.9863H28.727H32.5789H36.727H40.5789H43.8381L48.2826 0.714677Z" fill="var(--fill-0, #A9AEB9)"/>
<path d="M48.8752 4.89325L50.0604 12.554L50.9492 19.2861L51.8381 27.6432L52.4307 35.304L52.727 40.4111L53.6159 51.3218L56.2826 88.6968V89.6254L55.3937 90.3218L36.1344 91.2504L35.2455 90.7861L34.9492 88.6968L34.0604 79.6432L31.0974 54.5718L29.9122 46.679L28.4307 32.7504L27.8381 38.3218L25.7641 54.5718L22.8011 79.6432L21.6159 90.554L21.0233 91.2504L1.17146 90.3218L0.282574 89.6254L0.578871 88.4647L0.875167 83.1254L1.76406 70.3575L2.94924 54.5718L4.13443 38.3218L5.02332 28.804L5.9122 18.1254L7.68998 4.89325L8.55271 0.83766M17.7641 6.75039V5.58968L16.5789 5.50774L7.68998 4.89325M17.7641 6.75039H19.8381V5.58968H27.2455H36.4307V6.75039H39.0974V5.58968L48.8752 4.89325M17.7641 6.75039L17.1715 9.07182L15.69 11.1611L13.6159 12.0897L10.0604 12.7861H6.80109L7.09739 11.8575L10.9492 11.6254L13.9122 11.1611L15.69 9.30396L16.5789 7.44682V5.50774M8.55271 0.83766L14.8011 0.482534L18.9492 0.250391H23.9863H28.727H32.5789H36.727H40.5789H43.8381L48.2826 0.714677L48.8752 4.89325M48.2826 0.714677L39.0974 1.17896H34.0604H27.2455H18.6529L8.57887 0.714677L8.55271 0.83766M7.98628 11.6254L8.57887 6.98253L15.3937 7.44682V9.30396" stroke="var(--stroke-0, black)" stroke-width="0.5"/>
</g>
<g id="Vector 62">
<path d="M36.4308 6.51824V1.4111H38.2086L38.8012 6.75038L36.4308 6.51824Z" fill="var(--fill-0, #A9AEB9)"/>
<path d="M36.4308 1.4111V6.51824L38.8012 6.75038L38.2086 1.4111H36.1345" stroke="var(--stroke-0, black)" stroke-width="0.5"/>
</g>
<path id="Vector 65" d="M35.2455 89.6254L55.9863 88.6968" stroke="var(--stroke-0, black)" stroke-width="0.5"/>
<path id="Vector 66" d="M21.6158 89.8575L0.578798 88.6968" stroke="var(--stroke-0, black)" stroke-width="0.5"/>
<path id="Vector 67" d="M32.2827 5.8218V19.5182L31.3938 21.1432L29.0234 22.5361V23.2325L31.3938 22.3039L33.1716 20.4468V17.8932V5.8218" stroke="var(--stroke-0, black)" stroke-width="0.5"/>
<path id="Vector 64" d="M39.0973 7.44683V5.58969H39.9862L40.2825 7.91111L41.1713 9.30397L42.3565 10.4647L44.4306 11.3933L47.0973 11.8575H49.7639V12.554H46.801H44.4306L42.0602 11.6254L40.5788 10.6968L39.6899 8.83969L39.0973 7.44683Z" fill="var(--fill-0, #A9AEB9)" stroke="var(--stroke-0, black)" stroke-width="0.5"/>
<path id="Vector 63" d="M29.0234 2.80395L29.9122 2.5718L30.5048 2.80395L31.0974 3.26823V3.96466L30.2085 4.66109H29.0234L28.4308 3.96466V3.26823L29.0234 2.80395Z" fill="var(--fill-0, #A9AEB9)" stroke="var(--stroke-0, black)" stroke-width="0.5"/>
<g id="Vector 61">
<path d="M20.1345 6.75041H18.0604L18.351 1.28583L20.4308 1.41112L20.1345 6.75041Z" fill="var(--fill-0, #A9AEB9)"/>
<path d="M27.5419 32.5183L27.2456 5.58969H29.0234V32.7504L27.8382 34.8397L27.5419 32.5183Z" fill="var(--fill-0, #A9AEB9)"/>
<path d="M18.3567 1.17898L18.351 1.28583M18.351 1.28583L18.0604 6.75041H20.1345L20.4308 1.41112L18.351 1.28583ZM27.5419 1.28583L27.2456 5.58969M27.2456 5.58969L27.5419 32.5183L27.8382 34.8397L29.0234 32.7504V5.58969H27.2456Z" stroke="var(--stroke-0, black)" stroke-width="0.5"/>
</g>
</g>
</svg>
