<svg preserveAspectRatio="none" width="100%" height="100%" overflow="visible" style="display: block;" viewBox="0 0 65.5054 77.0215" fill="none" xmlns="http://www.w3.org/2000/svg">
<g id="Skjorte">
<path d="M14.7164 66.4957L14.895 61.3267L15.2522 56.4078V49.9883L14.895 46.7368L15.2522 42.4849L14.895 38.8999L14.904 38.7219L14.3593 42.6516L13.3772 46.2366V49.1546L12.6629 53.6566L11.77 58.5755L11.4129 61.7436L9.18073 65.5786L8.64501 71.0811C6.05573 72.2483 1.2343 70.9144 0.6093 70.2474C0.1093 69.7138 0.639062 66.2456 0.966443 64.5782L0.252157 60.9098L0.6093 56.908L1.59144 51.9058L1.94859 46.7368L2.84144 39.5669L4.18073 30.8963L4.71644 24.2267L5.34144 20.8918C5.41287 16.6899 7.45454 13.4162 8.46644 12.3046L11.145 8.96979L16.6807 6.71878L22.1272 4.30102C22.9406 3.56166 24.0604 2.75078 25.4121 2.05001C28.5942 0.400306 33.0615 -0.639088 37.8414 1.30183C39.426 1.94526 41.045 2.91621 42.6629 4.30103L52.2164 9.13654L56.9486 12.1379L59.1807 15.9729L59.9843 19.808V21.8089L61.2343 31.3966L62.2164 37.3993L63.02 44.986L63.645 51.5723L64.895 58.4087L65.2522 62.5773L64.6272 64.5782C64.9248 66.2734 65.3414 69.8305 64.6272 70.4975C63.7343 71.3312 59.4486 72.2483 56.5914 71.0811L55.9664 64.995L54.0914 62.4105L53.1093 56.4912L52.0379 49.2379L51.0557 43.3186L50.52 36.4822L49.895 43.3186L50.1629 48.9878V56.908V63.9946L50.6093 70.4975V72.2483V73.5288C49.0617 73.9179 46.0404 75.5878 44.7522 75.9468C43.4639 76.3058 38.3117 76.4168 35.7522 76.2501L33.2522 76.7501L32.7522 76.2501C30.2522 77.0002 24.5105 76.5002 23.7522 76.2501C23.0794 76.0282 21.6807 76.3346 14.7164 73.7501V72.2483V66.4957Z" fill="var(--fill-0, #9EB8A9)"/>
<path d="M14.7164 72.2483V66.4957L14.895 61.3267L15.2522 56.4078V49.9883L14.895 46.7368L15.2522 42.4849L14.895 38.8999L14.904 38.7219L15.2522 31.8134C15.2224 29.9793 14.9129 25.9441 13.9129 24.4768L12.2164 19.9747L8.46644 12.3046M8.46644 12.3046C7.45454 13.4162 5.41287 16.6899 5.34144 20.8918L4.71644 24.2267L4.18073 30.8963L2.84144 39.5669L1.94859 46.7368L1.59144 51.9058L0.6093 56.908L0.252157 60.9098L0.966443 64.5782M8.46644 12.3046L11.145 8.96979L16.6807 6.71878L22.1272 4.30102M0.966443 64.5782C0.639062 66.2456 0.1093 69.7138 0.6093 70.2474C1.2343 70.9143 6.05573 72.2483 8.64501 71.0811L9.18073 65.5786M0.966443 64.5782C4.1093 65.9788 7.75216 65.8287 9.18073 65.5786M9.18073 65.5786L11.4129 61.7436L11.77 58.5755L12.6629 53.6566L13.3772 49.1546V46.2366L14.3593 42.6516L14.904 38.7219M33.3772 8.92663C31.5709 8.82006 30.1755 10.4466 29.2731 12.1379C28.8127 13.0008 28.4807 13.8805 28.2879 14.5556C23.645 12.5547 22.2462 6.88552 22.1272 4.30102M42.6629 4.30103C41.045 2.91621 39.426 1.94526 37.8414 1.30183C33.0615 -0.639088 28.5942 0.400306 25.4121 2.05001C24.0604 2.75078 22.9406 3.56166 22.1272 4.30102M35.3075 9.55339C35.9152 9.89897 36.4625 10.3565 36.9486 10.866C38.0964 12.0691 38.9033 13.5621 39.3593 14.5556C41.2343 13.3051 43.9129 9.47002 42.6629 4.30103M64.6272 64.5782L65.2522 62.5773L64.895 58.4087L63.645 51.5723L63.02 44.986L62.2164 37.3993L61.2343 31.3966L59.9843 21.8089V19.808L59.1807 15.9729L56.9486 12.1379L52.2164 9.13654L42.6629 4.30103M33.3772 8.92663C33.4945 8.93355 33.6135 8.94779 33.7343 8.96979C34.2971 9.07233 34.8216 9.27707 35.3075 9.55339M33.3772 8.92663C29.7635 8.27405 23.1115 5.98512 25.4121 2.05001M33.3772 8.92663C34.716 8.64622 36.4764 8.00674 37.6831 6.96889M37.8414 1.30183C39.8063 3.8346 39.1588 5.69965 37.6831 6.96889M26.3236 6.21856C26.4426 4.9402 27.9664 2.56691 33.1093 3.30058C38.2522 4.03424 38.3014 6.05181 37.6831 6.96889M56.9486 12.1379C54.9486 13.0716 52.4843 17.4736 51.5022 19.5579C50.3593 20.6917 50.1926 27.6449 50.2522 30.9797L50.52 36.4822M64.6272 64.5782C64.9248 66.2734 65.3414 69.8305 64.6272 70.4975C63.7343 71.3312 59.4486 72.2483 56.5914 71.0811L55.9664 64.995M64.6272 64.5782C59.3414 65.7787 56.651 65.3563 55.9664 64.995M55.9664 64.995L54.0914 62.4105L53.1093 56.4912L52.0379 49.2379L51.0557 43.3186L50.52 36.4822M50.52 36.4822L49.895 43.3186L50.1629 48.9878V56.908V63.9946L50.6093 70.4975V72.2483M35.7522 76.2501C38.3117 76.4168 43.4639 76.3058 44.7522 75.9468C46.0404 75.5878 49.0617 73.9179 50.6093 73.5288V72.2483M35.7522 76.2501L33.2522 76.7501L32.7522 76.2501M35.7522 76.2501C35.5998 76.0445 35.2698 75.5047 35.09 75.1663M32.7522 76.2501C30.2522 77.0002 24.5105 76.5002 23.7522 76.2501C23.0794 76.0282 21.6807 76.3346 14.7164 73.7501V72.2483M31.8593 69.6638C31.4307 70.6642 31.9188 73.749 32.2164 75.1663C32.2164 75.2997 32.5736 76.0278 32.7522 76.2501M14.7164 72.2483C17.4545 73.5544 24.7879 75.9666 32.2164 75.1663M34.0022 14.5556C32.901 14.3889 30.77 14.6724 31.0557 17.1401L30.8772 22.1424L30.6986 29.5624V37.8161L30.52 46.5701V56.6579L30.2522 65.2451C30.1926 66.329 30.4307 68.73 31.8593 69.6638L34.5379 72.2483M34.5379 72.2483C34.2312 73.155 34.6377 74.315 35.09 75.1663M34.5379 72.2483L37.0379 66.6624V60.6597L36.6807 52.4894L36.3236 42.735L36.145 35.6485L35.8772 28.3952L35.6986 22.9761C35.5795 20.9196 35.0736 16.3564 34.0022 14.5556M50.6093 72.2483L47.4843 73.3321C46.0071 74.3048 41.4602 76.0333 35.09 75.1663M32.0379 10.3037C32.7022 10.0099 33.2796 10.0503 33.7343 10.2236C34.2085 10.4044 34.5493 10.7295 34.7164 10.9707L34.5171 11.9711L34.0022 14.5556M32.0379 10.3037C30.9105 10.8024 30.6498 11.9492 30.6621 12.7215C30.6646 12.8789 30.6784 13.0207 30.6986 13.1383L31.4129 15.1392M32.0379 10.3037L31.0557 9.97025M30.6621 12.7215C30.4382 12.8049 29.847 12.8049 29.2731 12.1379M34.5171 11.9711L36.9486 10.866M35.3075 9.55339L33.7343 10.2236" stroke="var(--stroke-0, black)" stroke-width="0.5"/>
</g>
</svg>
