<svg preserveAspectRatio="none" width="100%" height="100%" overflow="visible" style="display: block;" viewBox="0 0 68.5003 80.5109" fill="none" xmlns="http://www.w3.org/2000/svg">
<g id="Vector 98">
<path d="M47.5768 74.2635C44.6381 74.6267 42.5366 77.038 41.8532 78.1982C41.6417 77.5752 41.4439 76.97 41.2587 76.3822C40.7676 74.8235 40.3656 73.3875 40.0354 72.0692C38.8972 72.735 31.3108 72.3466 27.6599 72.0692C27.6057 74.5017 27.631 77.0713 27.6723 78.7279C27.6636 78.7938 27.6518 78.8709 27.6373 78.9549C27.5572 79.4172 27.3911 80.0875 27.1597 80.2412C26.8864 80.4228 26.0207 79.308 25.6221 78.7279C23.3155 77.8451 18.3437 76.0795 16.9085 76.0795C15.9688 75.222 14.1577 73.0983 14.4311 71.4638C14.7728 69.4208 14.4311 66.6211 14.2602 66.0158C14.0894 65.4105 12.21 59.5841 11.9537 56.1034L11.3557 66.0158L12.21 70.0262C9.93193 70.7828 4.812 72.0692 2.55672 71.1612L1.95873 66.6211C1.95873 66.4446 1.8733 65.9099 1.5316 65.1835C1.18989 64.4571 1.38922 63.6197 1.5316 63.2918C1.44617 62.9134 1.25823 62.0357 1.18989 61.5514C1.12155 61.0672 0.933607 57.1123 0.84818 55.1954C0.64885 54.1865 0.335617 51.7147 0.677326 49.8987L0.506475 43.8453L0.250193 36.6569L0.506475 30.7549C0.762756 28.7875 1.36075 24.5199 1.70245 23.1882C2.12959 21.5235 3.83813 13.8811 4.94869 13.5028C5.46125 12.6956 7.37482 10.7333 10.9286 9.34106C14.4824 7.94878 18.4641 6.23871 20.0108 5.5577C19.9647 5.04059 19.9622 4.62878 19.9839 4.34703L23.6572 0.639332C24.8247 0.765444 27.7919 1.0782 30.3205 1.32034C32.8492 1.56247 37.5249 0.815888 39.5467 0.41233L41.5969 0.260996C42.0241 1.01767 44.473 3.06068 45.6974 3.89302L45.8683 4.64969C48.2887 5.86037 53.9497 8.52385 57.2301 9.4924C57.5868 9.59772 57.9286 9.74158 58.2552 9.91691C60.9322 11.3539 62.5916 14.9049 63.1246 16.6808L64.6623 23.7935L66.2854 31.8142L67.3959 38.7756L67.9085 41.2726V43.3156L68.0793 46.7207L68.2502 52.6984L68.0793 57.5411V62.6108L67.8231 64.7295V66.7725C67.7661 68.084 67.6009 70.8736 67.3959 71.5395C67.1909 72.2054 61.2736 71.6152 58.3406 71.2368V67.2265L58.1698 64.5025L57.8281 61.6271L56.803 56.1034L55.9487 53.7577L54.8381 49.369L53.7276 55.1197L53.5567 59.6598L53.3004 63.9728C53.5712 65.4756 53.9792 67.9433 54.1547 69.5796C54.2561 70.5247 54.2798 71.1925 54.1547 71.2368C53.813 71.3579 52.7594 73.0529 52.2753 73.8852C51.9336 73.86 50.5155 73.9003 47.5768 74.2635Z" fill="var(--fill-0, #B2B9D7)"/>
<path d="M31.1748 11.5354C31.6589 11.7876 33.1226 12.2164 35.1045 11.9137M31.1748 11.5354C30.1497 7.60071 28.7829 6.46571 26.3909 5.5577M31.1748 11.5354C31.3741 14.2847 31.6874 20.2371 31.3457 22.0532C31.4596 25.3321 31.6532 32.2682 31.5165 33.7816C31.3798 35.2949 31.0609 42.2815 30.9185 45.5857C30.7762 48.6376 30.406 54.8927 30.0643 55.4981C29.6371 56.2547 28.9537 63.5945 28.1849 66.0158C27.9624 66.7165 27.8226 68.1246 27.7389 69.7992M54.8381 49.369L53.7276 55.1197L53.5567 59.6598L53.3004 63.9728C53.5712 65.4757 53.9792 67.9433 54.1547 69.5796C54.2561 70.5247 54.2798 71.1925 54.1547 71.2368C53.813 71.3579 52.7594 73.0529 52.2753 73.8852C51.9336 73.86 50.5155 73.9003 47.5768 74.2635C44.6381 74.6267 42.5366 77.038 41.8532 78.1982C41.6417 77.5752 41.4439 76.97 41.2587 76.3822C40.7676 74.8235 40.3656 73.3875 40.0354 72.0692C39.8563 71.3538 39.6982 70.6731 39.5585 70.0262C38.2486 63.9598 38.552 60.8622 38.1798 60.0381C37.7698 59.1301 37.3825 51.2859 37.2401 47.4773L36.5567 36.5056L36.3859 28.2579L35.8733 19.1778L35.1045 11.9137M45.8683 4.64969C45.4981 6.13782 44.7577 9.29566 44.7577 10.0221C44.7577 10.7485 42.6505 7.09627 41.5969 5.17936C40.9475 4.37187 39.9345 3.68177 38.8633 3.9886C38.3583 4.13325 37.8404 4.49946 37.3416 5.17936C36.4858 6.34579 35.6862 8.4355 35.1045 11.9137M45.8683 4.64969C48.2887 5.86037 53.9497 8.52385 57.2301 9.4924C57.5868 9.59772 57.9286 9.74158 58.2552 9.91691C60.9322 11.3539 62.5916 14.9049 63.1246 16.6808L64.6623 23.7935L66.2854 31.8142L67.3959 38.7756L67.9085 41.2726V43.3156L68.0793 46.7207L68.2502 52.6984L68.0793 57.5411V62.6108L67.8231 64.7295V66.7725C67.7661 68.084 67.6009 70.8736 67.3959 71.5395C67.1909 72.2054 61.2736 71.6152 58.3406 71.2368V67.2265L58.1698 64.5025L57.8281 61.6271L56.803 56.1034L55.9487 53.7577L54.8381 49.369M57.9989 19.1778C58.0044 19.2455 58.0087 19.3213 58.0119 19.4048C58.0888 21.4123 57.5308 27.8309 57.2301 30.9062L55.8633 40.0619L54.8381 49.369M20.0108 5.5577C19.9647 5.04059 19.9622 4.62878 19.9839 4.34702L23.6572 0.639332C24.8247 0.765444 27.7919 1.0782 30.3205 1.32034C32.8492 1.56247 37.5249 0.815888 39.5467 0.41233L41.5969 0.260996C42.0241 1.01767 44.473 3.06068 45.6974 3.89302L45.8683 4.64969M41.5969 0.260996C41.802 3.10608 39.8599 3.93152 38.8633 3.9886M41.5969 5.17936C38.4361 5.70903 36.7276 8.05472 37.5819 12.5948C38.2653 16.2268 38.4931 20.6659 38.5216 22.4315C38.7209 25.9626 39.0683 33.0854 38.8633 33.3276C38.6582 33.5697 38.7778 40.1881 38.8633 43.467L39.5467 54.3631C39.3758 55.2711 40.4864 62.3838 40.5718 65.7888C40.6401 68.5128 41.9102 73.179 42.5366 75.1715M23.6572 0.639332C23.2472 4.33189 25.3088 5.45681 26.3909 5.5577M22.0341 12.2164C20.6574 9.50649 20.1461 7.0774 20.0108 5.5577M22.0341 12.4434C22.5751 11.7624 23.6572 10.3096 23.6572 9.9464C23.6572 9.4924 23.9989 4.64969 26.3909 5.5577M26.3909 5.5577C29.4485 5.70903 35.9192 5.84524 37.3416 5.17936M4.94869 13.5028C5.26192 15.0665 6.12758 18.4514 7.08436 19.4805C7.38244 19.8011 7.71037 21.1239 8.03612 22.9612C8.75596 27.0212 9.46516 33.5934 9.81803 37.4136L11.9537 56.1034C12.21 59.5841 14.0894 65.4105 14.2602 66.0158C14.4311 66.6211 14.7728 69.4208 14.4311 71.4638C14.1577 73.0983 15.9688 75.222 16.9085 76.0795C18.3437 76.0795 23.3155 77.8451 25.6221 78.7279C26.0207 79.308 26.8864 80.4228 27.1597 80.2412C27.3911 80.0876 27.5572 79.4172 27.6373 78.9549C27.6518 78.8709 27.6635 78.7938 27.6723 78.7279C27.631 77.0713 27.6057 74.5017 27.6599 72.0692C27.6773 71.2867 27.7029 70.5184 27.7389 69.7992M14.4311 71.4638L16.9085 74.5662L25.9638 77.4415L27.6373 78.9549M11.9537 56.1034L11.3557 66.0158L12.21 70.0262C9.93193 70.7828 4.812 72.0692 2.55672 71.1612L1.95873 66.6211C1.95873 66.4446 1.8733 65.9099 1.5316 65.1835C1.18989 64.4571 1.38922 63.6197 1.5316 63.2918C1.44617 62.9134 1.25823 62.0357 1.18989 61.5514C1.12155 61.0672 0.933607 57.1123 0.84818 55.1954C0.64885 54.1865 0.335617 51.7147 0.677326 49.8987L0.506475 43.8453L0.250193 36.6569L0.506475 30.7549C0.762756 28.7875 1.36075 24.5199 1.70245 23.1882C2.12959 21.5235 3.83813 13.8811 4.94869 13.5028M4.94869 13.5028C5.46125 12.6956 7.37482 10.7333 10.9286 9.34106C14.4824 7.94878 18.4641 6.23871 20.0108 5.5577M58.2552 9.91691C58.4347 12.3229 58.6373 17.5888 58.0119 19.4048M25.9638 77.2902L26.22 66.0158C26.875 63.5945 28.1849 58.0253 28.1849 55.1197C28.4127 51.9921 28.8683 45.5251 28.8683 44.6776C28.8683 43.6183 29.7226 34.2356 29.2954 33.0249C28.9537 32.0564 28.8113 25.4077 28.7829 22.2045M28.7829 22.2045L29.3808 12.2164C29.2385 11.0057 27.9969 8.40279 24.1698 7.67638M28.7829 22.2045C27.6438 22.3054 25.2291 22.492 24.6824 22.4315M54.1547 69.5796L52.2753 72.0692C45.7145 71.706 43.0492 73.9861 42.5366 75.1715L41.2587 76.3822M24.6824 22.4315L9.81803 22.7342L8.03612 22.9612M24.6824 22.4315C24.1356 22.371 23.942 24.7267 23.9135 25.9122L23.1447 26.2905C23.035 26.2949 22.921 26.2996 22.803 26.3044C19.5487 26.4373 13.2413 26.7206 11.5266 26.8959C11.1382 26.9355 10.8299 26.9422 10.5869 26.9255C9.71794 26.8658 9.68452 26.5073 9.81803 26.2905V22.7342M10.5869 26.9255C10.6154 29.4127 10.7748 34.4172 11.1849 34.5382C11.6974 34.6896 22.7175 34.5382 22.803 34.3112C22.8884 34.0842 23.0592 27.0749 22.803 26.3044M27.6599 72.0692C31.3108 72.3466 38.8972 72.735 40.0354 72.0692M27.7389 69.7992C31.0562 70.0262 38.0645 70.3894 39.5585 70.0262" stroke="var(--stroke-0, black)" stroke-width="0.5"/>
</g>
</svg>
