<svg preserveAspectRatio="none" width="100%" height="100%" overflow="visible" style="display: block;" viewBox="0 0 80.8174 31.5862" fill="none" xmlns="http://www.w3.org/2000/svg">
<g id="Loafer">
<g id="Vector 73">
<path d="M2.0448 4.64102L2.4935 2.9188L3.16655 2.70352L3.8396 2.48824L5.25 1.83541H7.75L13.75 2.70352L22.75 4.33541L28.25 5.33541L32.25 5.83541L36.25 6.33541L40.25 6.83541H41.25H41.5V5.67274L40.75 2.33541L41.75 0.33541L42.75 0.83541L43.75 1.83541L49.25 5.83541L47.75 10.8354L44.2226 15.8354L45.75 17.3354L53.75 18.8354L55.25 16.3354L56.25 12.3354L55.25 9.33541L58.5811 9.83541L63.5168 11.3354L68.9012 12.3354L74.2856 13.8354L75.75 14.3354L77.75 15.3354L78.25 16.3354L79.2213 20.141L80.5674 21.0021V22.7244V24.4466L79.2213 25.7382L74.7343 27.891L70.2473 29.6132L64.4142 30.4744L57.235 30.9049L50.5045 31.3355L46.0174 30.9049L40.633 30.0438L34.3512 28.3216L25.3772 27.0299L24.9285 30.4744L16.4032 30.0438L11.4675 29.6132L6.98051 28.7521L3.8396 27.891L2.0448 26.5994L0.6987 20.5716L1.1474 19.2799L0.773484 17.1271L0.25 14.1132V9.80769L1.1474 7.22435L2.0448 4.64102Z" fill="var(--fill-0, #A9AEB9)"/>
<path d="M1.1474 19.2799L0.6987 20.5716L2.0448 26.5994L3.8396 27.891L6.98051 28.7521L11.4675 29.6132L16.4032 30.0438L24.9285 30.4744L25.3772 27.0299L34.3512 28.3216L40.633 30.0438L46.0174 30.9049L50.5045 31.3355L57.235 30.9049L64.4142 30.4744L70.2473 29.6132L74.7343 27.891L79.2213 25.7382L80.5674 24.4466V22.7244V21.0021L79.2213 20.141M1.1474 19.2799L6.53181 21.8632L17.7493 23.1549L23.5824 23.5855L27.6207 24.4466L44.2226 27.0299L51.8506 28.3216L58.5811 28.7521L63.5168 28.3216L68.9012 27.0299L74.2856 24.8771L76.9778 23.5855L79.2213 21.8632V20.141M41.5 6.83541H41.25H40.25L36.25 6.33541L32.25 5.83541L28.25 5.33541L22.75 4.33541L13.75 2.70352L7.75 1.83541H5.25L3.8396 2.48824L3.16655 2.70352L2.4935 2.9188L2.0448 4.64102L1.1474 7.22435L0.25 9.80769V14.1132L0.773484 17.1271L1.1474 19.2799M53.75 18.8354L55.25 16.3354L56.25 12.3354L55.25 9.33541L58.5811 9.83541L63.5168 11.3354L68.9012 12.3354L74.2856 13.8354L75.75 14.3354L77.75 15.3354L78.25 16.3354L79.2213 20.141M0.773484 17.1271L4.2883 18.4188L7.42921 5.50213M7.42921 5.50213L3.16655 2.70352M78.25 16.3354L77.75 17.8354L75.25 18.8354L68.25 19.8354H63.5168H59.25L53.75 18.8354L45.75 17.3354L44.2226 15.8354L43.75 15.3354L37.25 14.1132L29.25 12.3354L20.25 9.80769L12.75 7.33541L7.42921 5.50213M41.5 5.67274V6.83541L41.25 9.33541L41.75 12.3354L44.2226 15.3354V15.8354M41.5 5.67274L40.75 2.33541L41.75 0.33541L42.75 0.83541L43.75 1.83541L49.25 5.83541L47.75 10.8354L44.2226 15.8354M42.75 0.83541V1.83541L41.5 5.67274" stroke="var(--stroke-0, black)" stroke-width="0.5"/>
</g>
<g id="Vector 76">
<path d="M47.8122 10.6688L49.1583 5.93269L52.2993 7.22435L54.0941 8.08546L55.4402 9.37713L56.3376 12.8216L55.4402 15.8355L53.6454 18.8494L45.12 17.1271L44.2226 15.8355L45.12 14.5438L47.8122 10.6688Z" fill="var(--fill-0, #A9AEB9)"/>
<path d="M41.9791 0.335465L45.12 2.9188L49.1583 5.93269M49.1583 5.93269L47.8122 10.6688L45.12 14.5438L44.2226 15.8355L45.12 17.1271L53.6454 18.8494L55.4402 15.8355L56.3376 12.8216L55.4402 9.37713L54.0941 8.08546L52.2993 7.22435L49.1583 5.93269Z" stroke="var(--stroke-0, black)" stroke-width="0.5"/>
</g>
<path id="Vector 80" d="M1.14746 7.65494L2.04486 7.22438L2.49356 8.51605L3.39096 8.08549V8.9466L4.28836 8.51605L4.73706 9.37716L6.08317 8.9466L6.53187 9.80771H7.42927L7.87797 10.6688L8.77537 9.80771L9.22407 11.0994L10.1215 10.6688L10.5702 11.5299L11.4676 11.0994L11.9163 11.9605L12.8137 11.5299L13.2624 12.391L14.1598 11.9605L14.6085 13.2522L15.5059 12.391L16.4033 13.2522L16.852 12.8216L17.3007 13.6827L18.6468 13.2522L19.0955 14.1133L19.9929 13.6827L20.4416 14.5438" stroke="var(--stroke-0, black)" stroke-width="0.5"/>
<path id="Vector 79" d="M50.9532 8.94658L51.4019 7.22435L52.2993 7.65491L53.6454 9.37713L52.748 10.6688L52.2993 12.8216L50.9532 13.6827L49.6071 13.2521L50.9532 8.94658Z" fill="var(--fill-0, #A9AEB9)" stroke="var(--stroke-0, black)" stroke-width="0.5"/>
</g>
</svg>
