<svg preserveAspectRatio="none" width="100%" height="100%" overflow="visible" style="display: block;" viewBox="0 0 54.5 31.5" fill="none" xmlns="http://www.w3.org/2000/svg">
<g id="Vector 95">
<path d="M0.534432 22.6394C-0.158357 19.4746 0.57567 16.046 1.02928 14.7274C0.78186 13.4087 3.00868 11.2509 9.44172 11.2509C15.8748 11.2509 17.8542 13.0491 18.349 14.4876C18.7449 15.6385 18.8439 18.124 18.8439 20.2418C20.0315 21.2009 23.1325 19.043 24.5346 17.8443L34.1842 9.81238C34.3195 9.41887 35.2486 8.61175 36.411 7.72498C37.7982 6.66668 39.5178 5.49495 40.6172 4.77747C41.31 3.43483 48.1637 1.34094 51.5039 0.461817C52.2462 0.301979 53.7802 0.0782052 53.9782 0.461817C54.2256 0.941332 55.0916 2.49975 51.5039 2.61963C48.6338 2.71554 43.6276 6.33587 41.4832 8.13405L38.5141 11.0751L36.2195 13.348L36.1636 13.4034C36.1636 13.4028 36.1636 13.4022 36.1636 13.4016L24.6583 24.4376C22.4728 27.0349 16.4686 32.0139 9.93657 31.1508C1.77155 30.0719 1.40042 26.5954 0.534432 22.6394Z" fill="var(--fill-0, #A9AEB9)"/>
<path d="M34.1842 9.81238C34.844 10.4482 36.1636 12.0565 36.1636 13.4034L36.2195 13.348L24.6583 24.4376C22.4728 27.0349 16.4686 32.0139 9.93657 31.1508C1.77155 30.0719 1.40042 26.5954 0.534432 22.6394C-0.158357 19.4746 0.57567 16.046 1.02928 14.7274M34.1842 9.81238L24.5346 17.8443C23.1326 19.043 20.0315 21.2009 18.8439 20.2418C18.8439 18.124 18.7449 15.6385 18.349 14.4876C17.8542 13.0491 15.8748 11.2509 9.44172 11.2509C3.00868 11.2509 0.78186 13.4087 1.02928 14.7274M1.02928 14.7274C1.48289 15.6065 3.80044 17.4127 9.44172 17.6045C15.083 17.7963 17.7304 15.6065 18.349 14.4876M34.1842 9.81238C34.3195 9.41887 35.2486 8.61175 36.411 7.72498C37.7982 6.66668 39.5178 5.49495 40.6172 4.77747C41.31 3.43483 48.1637 1.34094 51.5039 0.461817C52.2462 0.301979 53.7802 0.0782052 53.9782 0.461817C54.2256 0.941332 55.0916 2.49975 51.5039 2.61963C48.6338 2.71554 43.6276 6.33587 41.4832 8.13405L38.5141 11.0751M51.5039 2.61963C51.9988 2.236 51.7101 1.02124 51.5039 0.461817M36.411 7.72498C37.0708 8.22363 38.4151 9.59176 38.5141 11.0751M38.5141 11.0751L36.1636 13.4034M3.2561 14.7274C2.88496 13.9682 3.30559 12.4737 7.95717 12.5696C13.7716 12.6895 15.2562 12.5696 16.1222 14.0081C16.9882 15.4467 11.1737 16.1659 7.95717 15.9262C5.38395 15.7344 3.75095 15.0471 3.2561 14.7274Z" stroke="var(--stroke-0, black)" stroke-width="0.5"/>
</g>
</svg>
